# xmcd CD database file
#
# Track frame offsets:
#	150
#	12875
#	29700
#	40762
#	51487
#	64662
#	76325
#	80550
#	104250
#	118237
#	134887
#	141150
#	153712
#
# Disc length: 2243 seconds
#
# Revision: 4
# Processed by: cddbd v1.5.2PL0 Copyright (c) Steve Scherf et al.
# Submitted via: FreeDB 13.2
#
DISCID=bd08c10d
DTITLE=Arlo Guthrie - Last of the Brooklyn Cowboys
DYEAR=1973
DGENRE=Folk
TTITLE0=Farrell O'Gara
TTITLE1=Gypsy Davy
TTITLE2=This Troubled Mind of Mine
TTITLE3=Week on the Rag
TTITLE4=Miss the Mississippi and You
TTITLE5=Lovesick Blues
TTITLE6=Uncle Jeff
TTITLE7=Gates of Eden
TTITLE8=Last Train
TTITLE9=Cowboy Song
TTITLE10=Sailor's Bonnett
TTITLE11=Cooper's Lament
TTITLE12=Ramblin' 'Round
EXTD=Rising Son Records RSR 1107-2
EXTT0=
EXTT1=
EXTT2=
EXTT3=
EXTT4=
EXTT5=
EXTT6=
EXTT7=
EXTT8=
EXTT9=
EXTT10=
EXTT11=
EXTT12=
PLAYORDER=
